<svg aria-hidden="true" style="position: absolute; width: 0; height: 0; overflow: hidden;" version="1.1" xmlns="http://www.w3.org/2000/svg" xmlns:xlink="http://www.w3.org/1999/xlink">
<defs>
<symbol id="icon-magnifying-glass" viewBox="0 0 24 24">
<path d="M11.5 21C16.7467 21 21 16.7467 21 11.5C21 6.25329 16.7467 2 11.5 2C6.25329 2 2 6.25329 2 11.5C2 16.7467 6.25329 21 11.5 21Z" stroke-width="1.5" stroke-linecap="round" stroke-linejoin="round"/>
<path d="M22 22L20 20" stroke="#2D2D2D" stroke-width="1.5" stroke-linecap="round" stroke-linejoin="round"/>
</symbol>
<symbol id="icon-arrow-down" viewBox="0 0 11 6">
<path d="M10.7812 1.22462L6.02812 5.78989C5.73645 6.07004 5.26355 6.07004 4.97188 5.78989L0.218757 1.22462C-0.0729189 0.944468 -0.0729189 0.490259 0.218757 0.210111C0.510431 -0.070037 0.98333 -0.070037 1.27501 0.210111L5.5 4.26813L9.72499 0.210111C10.0167 -0.070037 10.4896 -0.070037 10.7812 0.210111C11.0729 0.490259 11.0729 0.944468 10.7812 1.22462Z"/>
</symbol>
<symbol id="icon-cross" viewBox="0 0 24 24">
  <path fill-rule="evenodd" clip-rule="evenodd" d="M19.7781 3.97183C19.4852 3.67895 18.9107 3.77852 18.495 4.19423L4.44413 18.2451C4.02842 18.6608 3.92885 19.2353 4.22174 19.5282C4.51462 19.8211 5.08908 19.7215 5.50479 19.3058L19.5557 5.25489C19.9714 4.83918 20.071 4.26471 19.7781 3.97183Z" />
  <path fill-rule="evenodd" clip-rule="evenodd" d="M11 11.5C11 11.2239 11.0433 11 11.0968 11H12.9032C12.9567 11 13 11.2239 13 11.5C13 11.7761 12.9567 12 12.9032 12H11.0968C11.0433 12 11 11.7761 11 11.5Z" />
  <path fill-rule="evenodd" clip-rule="evenodd" d="M19.778 19.5282C20.0709 19.2353 19.9713 18.6608 19.5556 18.2451L5.50468 4.19422C5.08896 3.77851 4.51451 3.67894 4.22162 3.97183C3.92873 4.26472 4.0283 4.83917 4.44402 5.25488L18.4949 19.3058C18.9106 19.7215 19.4851 19.8211 19.778 19.5282Z" />
</symbol>
<symbol id="icon-burger" viewBox="0 0 24 24">
<path fill-rule="evenodd" clip-rule="evenodd" d="M23 12.25C23 11.8358 22.5234 11.5 21.9355 11.5H2.06452C1.47661 11.5 1 11.8358 1 12.25C1 12.6642 1.47661 13 2.06452 13H21.9355C22.5234 13 23 12.6642 23 12.25Z" />
<path fill-rule="evenodd" clip-rule="evenodd" d="M23 4.75C23 4.33579 22.5234 4 21.9355 4H2.06452C1.47661 4 1 4.33579 1 4.75C1 5.16421 1.47661 5.5 2.06452 5.5H21.9355C22.5234 5.5 23 5.16421 23 4.75Z" />
<path fill-rule="evenodd" clip-rule="evenodd" d="M23 19.75C23 19.3358 22.5234 19 21.9355 19H2.06452C1.47661 19 1 19.3358 1 19.75C1 20.1642 1.47661 20.5 2.06452 20.5H21.9355C22.5234 20.5 23 20.1642 23 19.75Z" />
</symbol>
<symbol id="icon-star" viewBox="0 0 32 32">
<path d="M17.329 1.559c-0.259-0.477-0.757-0.796-1.329-0.796s-1.070 0.319-1.325 0.788l-0.004 0.008-4.172 7.486c-0.293 0.526-0.798 0.884-1.376 0.975l-7.817 1.228c-1.31 0.207-1.772 1.934-0.75 2.816l5.822 5.024c0.539 0.465 0.792 1.199 0.663 1.915l-1.524 8.331c-0.241 1.317 1.086 2.339 2.225 1.716l7.36-4.038c0.258-0.145 0.567-0.23 0.895-0.23s0.637 0.085 0.905 0.235l-0.009-0.005 7.36 4.038c1.14 0.625 2.469-0.399 2.226-1.716l-1.524-8.332c-0.13-0.716 0.122-1.449 0.661-1.914l5.824-5.024c1.021-0.884 0.562-2.609-0.751-2.816l-7.817-1.23c-0.596-0.101-1.090-0.464-1.368-0.964l-0.005-0.010-4.171-7.486z"></path>
</symbol>
<symbol id="icon-hat-graduation" viewBox="0 0 24 24">
  <path d="M10.0081 3.51237C10.6143 3.17666 11.3011 3 12.0001 3C12.6991 3 13.3859 3.17666 13.9921 3.51237L23.6655 8.86921C23.7672 8.92555 23.8516 9.00675 23.9104 9.10462C23.9691 9.20248 24 9.31355 24 9.42662C24 9.53969 23.9691 9.65076 23.9104 9.74863C23.8516 9.84649 23.7672 9.92769 23.6655 9.98404L20.0002 12.0118V17.7853C20.0003 17.8698 19.9832 17.9534 19.9498 18.0315C19.9164 18.1097 19.8674 18.1806 19.8055 18.2405L19.8028 18.2417L19.8002 18.2456L19.7908 18.2533L19.7602 18.2816L19.6535 18.3768C19.5602 18.4565 19.4268 18.5658 19.2522 18.6957C18.7733 19.0503 18.2644 19.3656 17.7308 19.6382C15.9661 20.5405 13.9975 21.0083 12.0001 20.9999C10.0026 21.0078 8.03401 20.5396 6.26939 19.6369C5.73627 19.3643 5.22782 19.049 4.74937 18.6944C4.57349 18.5635 4.40355 18.4254 4.24004 18.2803C4.16684 18.2182 4.10774 18.1421 4.06644 18.057C4.02514 17.9718 4.00253 17.8793 4.00003 17.7853V12.0144L1.33334 10.537V16.4981C1.33334 16.6687 1.26311 16.8322 1.13808 16.9528C1.01306 17.0733 0.843485 17.1411 0.666673 17.1411C0.48986 17.1411 0.320289 17.0733 0.195264 16.9528C0.0702386 16.8322 1.78356e-07 16.6687 1.78356e-07 16.4981V9.42727C-8.73681e-05 9.31183 0.0320559 9.1985 0.093055 9.09917C0.154054 8.99984 0.241658 8.91819 0.34667 8.86278L10.0094 3.51237H10.0081ZM13.9921 15.3396C13.3859 15.6753 12.6991 15.852 12.0001 15.852C11.3011 15.852 10.6143 15.6753 10.0081 15.3396L5.33338 12.7512V17.4972C5.81884 17.8816 6.34275 18.2185 6.89739 18.5028C8.07074 19.1071 9.79742 19.7128 12.0001 19.7128C13.7783 19.7216 15.5312 19.3064 17.1028 18.5041C17.6575 18.2194 18.1814 17.8821 18.6668 17.4972V12.7499L13.9921 15.3396ZM13.3281 4.62849C12.924 4.40468 12.4661 4.28691 12.0001 4.28691C11.5341 4.28691 11.0762 4.40468 10.6721 4.62849L2.00535 9.42598L10.6721 14.2248C11.0762 14.4486 11.5341 14.5663 12.0001 14.5663C12.4661 14.5663 12.924 14.4486 13.3281 14.2248L21.9949 9.42598L13.3281 4.62849Z"/>
</symbol>
<symbol id="icon-hat-graduation-hover" viewBox="0 0 24 24">
  <path d="M4.00003 17.7854V13.4959L9.34408 16.4559C10.1523 16.9035 11.0681 17.139 12.0001 17.139C12.9321 17.139 13.8479 16.9035 14.6561 16.4559L20.0002 13.4959V17.7854C20.0003 17.8699 19.9832 17.9535 19.9498 18.0316C19.9164 18.1098 19.8674 18.1807 19.8055 18.2406L19.8028 18.2418L19.8002 18.2457L19.7908 18.2534L19.7602 18.2817L19.6535 18.3768C19.5602 18.4566 19.4268 18.5659 19.2522 18.6957C18.7732 19.0503 18.2644 19.3656 17.7308 19.6382C15.9661 20.5405 13.9975 21.0082 12.0001 20.9999C10.0026 21.0078 8.03401 20.5396 6.26939 19.6369C5.7363 19.3643 5.22785 19.049 4.74937 18.6944C4.57348 18.5636 4.40354 18.4254 4.24004 18.2804L4.20937 18.2521C4.14419 18.1916 4.09212 18.1191 4.05618 18.039C4.02025 17.9589 4.00116 17.8727 4.00003 17.7854ZM23.6655 9.9844L13.9921 15.3398C13.3859 15.6755 12.6991 15.8521 12.0001 15.8521C11.3011 15.8521 10.6143 15.6755 10.0081 15.3398L1.33334 10.5373V16.4983C1.33334 16.6688 1.26311 16.8323 1.13808 16.9529C1.01306 17.0735 0.843485 17.1412 0.666672 17.1412C0.48986 17.1412 0.320289 17.0735 0.195264 16.9529C0.0702386 16.8323 1.02574e-07 16.6688 1.02574e-07 16.4983V9.42765C-6.65637e-05 9.31174 0.0323643 9.19796 0.0938601 9.09837C0.155356 8.99878 0.243629 8.91707 0.349336 8.86189L10.0081 3.51294C10.6141 3.17687 11.301 3 12.0001 3C12.6992 3 13.3861 3.17687 13.9921 3.51294L23.6655 8.86961C23.7672 8.92595 23.8516 9.00715 23.9104 9.10501C23.9691 9.20287 24 9.31394 24 9.427C24 9.54007 23.9691 9.65114 23.9104 9.749C23.8516 9.84686 23.7672 9.92806 23.6655 9.9844Z" />
</symbol>
</defs>
</svg>
